<svg width="16" height="16" viewBox="0 0 16 16" fill="none" xmlns="http://www.w3.org/2000/svg">
  <path d="M15.5 11.5C15.5 12.0523 15.0523 12.5 14.5 12.5H12.5C6.14873 12.5 1 7.35127 1 1V-1C1 -1.55228 1.44772 -2 2 -2H4.5C5.05228 -2 5.5 -1.55228 5.5 -1V2.5C5.5 3.05228 5.05228 3.5 4.5 3.5H3.5C3.5 6.24673 5.75327 8.5 8.5 8.5H9.5C10.0523 8.5 10.5 8.94772 10.5 9.5V12C10.5 12.5523 10.9477 13 11.5 13H15C15.5523 13 16 12.5523 16 12V9.5C16 8.94772 15.5523 8.5 15 8.5H14C13.4477 8.5 13 8.05228 13 7.5V6.5C13 5.94772 13.4477 5.5 14 5.5H15.5V11.5Z" stroke="white" stroke-width="1.5" fill="none"/>
</svg>
