<svg width="24" height="24" viewBox="0 0 24 24" fill="none" xmlns="http://www.w3.org/2000/svg">
  <path d="M12 2C6.47715 2 2 6.47715 2 12C2 14.1214 2.69883 16.1051 3.92371 17.6984L2.25 22.75L7.30156 21.0763C8.8949 22.3012 10.8786 23 13 23C18.5228 23 23 18.5228 23 13C23 7.47715 18.5228 2 13 2H12Z" fill="#25D366" stroke="#25D366" stroke-width="1.5" stroke-linecap="round" stroke-linejoin="round"/>
  <path d="M17.5 14.5C17.5 14.5 17 15.5 16.5 16C16 16.5 15 17 14.5 17C14 17 13 16.5 12.5 16C12 15.5 11.5 15 11 14.5C10.5 14 10 13.5 9.5 13C9 12.5 8.5 11.5 8.5 11C8.5 10.5 9 9.5 9.5 9C10 8.5 11 8 11.5 8C12 8 13 8.5 13.5 9C14 9.5 14.5 10 15 10.5C15.5 11 16 11.5 16.5 12C17 12.5 17.5 13.5 17.5 13.5V14.5Z" fill="white"/>
</svg>
